#!OML:ASF F:\VICON\USERDATA\INSTALL\Justin_Nancy\Justin_Nancy.ASF
:FULLY-SPECIFIED
:DEGREES
185
root 0.930949 17.7464 -15.629 8.35527 -1.4391 0.107641
lowerback 8.76354 -0.0764774 -0.425521
upperback 0.239355 7.31598e-005 3.00359
thorax -4.67133 0.0419253 3.37113
lowerneck -16.7212 -3.89807 -10.0944
upperneck 24.2194 -3.82765 4.49421
head 10.88 -2.13546 2.77213
rclavicle 5.96354e-015 -4.77083e-015
rhumerus -32.1961 2.52487 -82.5999
rradius 57.0178
rwrist 0.839483
rhand -13.6311 17.6435
rfingers 7.12502
rthumb 12.4848 -11.9636
lclavicle 5.96354e-015 -4.77083e-015
lhumerus -31.3005 0.388887 87.5714
lradius 51.3294
lwrist 3.19367
lhand -14.519 28.5893
lfingers 7.12502
lthumb 11.6286 58.2466
rfemur -16.369 4.41417 19.8965
rtibia 25.5646
rfoot -12.3229 -10.6546
rtoes 4.59981
lfemur -16.5875 -3.54902 -18.7427
ltibia 25.0424
lfoot -13.7164 4.90936
ltoes -0.366631
186
root 0.935302 17.7354 -15.662 8.52156 -1.49349 0.0267518
lowerback 9.30059 -0.0563553 -0.408308
upperback 0.233506 0.040618 3.10365
thorax -4.98209 0.06603 3.46753
lowerneck -16.6056 -3.91432 -10.222
upperneck 24.02 -3.82665 4.51082
head 10.7875 -2.14239 2.79793
rclavicle -9.34288e-015 1.59028e-014
rhumerus -32.0851 2.8901 -82.5255
rradius 57.5703
rwrist 0.554005
rhand -13.6506 17.2997
rfingers 7.12502
rthumb 12.466 -12.3085
lclavicle -9.34288e-015 1.59028e-014
lhumerus -31.1996 0.223996 87.7176
lradius 51.8225
lwrist 3.64665
lhand -15.7619 25.6867
lfingers 7.12502
lthumb 10.4298 55.408
rfemur -16.9242 4.41901 19.9399
rtibia 26.0097
rfoot -12.3929 -10.5036
rtoes 5.1842
lfemur -17.1988 -3.45993 -18.6248
ltibia 25.6566
lfoot -13.946 4.76536
ltoes 0.589127
187
root 0.939528 17.723 -15.6982 8.69373 -1.47223 -0.0264734
lowerback 9.89067 -0.0414191 -0.364808
upperback 0.186161 0.0777745 3.16404
thorax -5.36616 0.0885833 3.50902
lowerneck -16.4521 -3.92845 -10.2939
upperneck 23.8883 -3.83767 4.50151
head 10.7121 -2.15429 2.80451
rclavicle -1.19271e-014 -1.59028e-014
rhumerus -32.1383 3.19973 -82.4759
rradius 58.1981
rwrist 0.268634
rhand -13.5361 16.7509
rfingers 7.12502
rthumb 12.5764 -12.8506
lclavicle -1.19271e-014 -1.59028e-014
lhumerus -31.1752 -0.0703226 87.8231
lradius 52.2629
lwrist 4.00996
lhand -17.5111 18.9253
lfingers 7.12502
lthumb 8.74215 48.7243
rfemur -17.5241 4.35477 19.9639
rtibia 26.5098
rfoot -12.5143 -10.4234
rtoes 5.36422
lfemur -17.8595 -3.33919 -18.5611
ltibia 26.2658
lfoot -14.0579 4.65008
ltoes 0.0872428
188
root 0.944607 17.7095 -15.7301 8.83384 -1.38402 -0.078869
lowerback 10.4428 -0.0543189 -0.263658
upperback 0.167359 0.0820725 3.18086
thorax -5.69686 0.0918903 3.4759
lowerneck -16.2796 -3.89248 -10.2336
upperneck 23.8092 -3.80812 4.45235
head 10.6447 -2.14154 2.78147
rclavicle -2.5842e-015 -1.90833e-014
rhumerus -32.2726 3.43562 -82.494
rradius 58.8687
rwrist 0.0900314
rhand -13.4756 15.9278
rfingers 7.12502
rthumb 12.6347 -13.6701
lclavicle -2.5842e-015 -1.90833e-014
lhumerus -31.0509 -0.220279 87.7738
lradius 52.6206
lwrist 3.73915
lhand -17.7498 16.279
lfingers 7.12502
lthumb 8.5118 46.0874
rfemur -18.0714 4.1347 20.0068
rtibia 27.0406
rfoot -12.6825 -10.316
rtoes 5.52463
lfemur -18.5084 -3.22463 -18.5066
ltibia 26.901
lfoot -14.1718 4.47475
ltoes -0.29708
189
root 0.948896 17.6906 -15.7632 8.90499 -1.37933 -0.182316
lowerback 11.0691 -0.0510394 -0.15993
upperback 0.241946 0.110438 3.23261
thorax -5.97235 0.105832 3.47443
lowerneck -16.3062 -3.84866 -10.2842
upperneck 23.6364 -3.73638 4.4964
head 10.5822 -2.1045 2.81383
rclavicle 6.16232e-015 1.19271e-014
rhumerus -32.3897 3.68587 -82.5
rradius 59.6905
rwrist -0.0764873
rhand -13.6549 15.1423
rfingers 7.12502
rthumb 12.4618 -14.4661
lclavicle 6.16232e-015 1.19271e-014
lhumerus -30.865 -0.274347 87.7668
lradius 53.0423
lwrist 3.48931
lhand -17.5714 16.8016
lfingers 7.12502
lthumb 8.68393 46.603
rfemur -18.5821 3.9223 20.1138
rtibia 27.5633
rfoot -12.7769 -10.1426
rtoes 5.41557
lfemur -19.0943 -3.18353 -18.3861
ltibia 27.5574
lfoot -14.3569 4.42223
ltoes -0.164132
190
root 0.95201 17.6725 -15.8011 9.121 -1.42231 -0.295842
lowerback 11.5742 -0.00429928 -0.0143506
upperback 0.420426 0.195345 3.23355
thorax -6.07228 0.142774 3.3826
lowerneck -16.7135 -3.89605 -10.2526
upperneck 23.3841 -3.78354 4.58857
head 10.5723 -2.10265 2.82836
rclavicle 1.43125e-014 -7.15625e-015
rhumerus -32.209 3.80021 -82.501
rradius 60.4843
rwrist -0.30993
rhand -13.6102 14.6001
rfingers 7.12502
rthumb 12.505 -15.0057
lclavicle 1.43125e-014 -7.15625e-015
lhumerus -30.362 -0.540417 87.7243
lradius 53.3976
lwrist 3.36979
lhand -17.0629 20.0936
lfingers 7.12502
lthumb 9.17466 49.874
rfemur -19.3181 3.82375 20.2205
rtibia 28.1033
rfoot -12.7976 -10.0391
rtoes 5.09044
lfemur -19.9083 -3.08908 -18.2536
ltibia 28.2254
lfoot -14.4861 4.43737
ltoes -0.401118
191
root 0.954413 17.6607 -15.8384 9.43519 -1.37089 -0.469597
lowerback 12.0001 0.031001 0.219908
upperback 0.596121 0.277641 3.24572
thorax -6.12904 0.175714 3.25096
lowerneck -17.1737 -3.94306 -10.0341
upperneck 23.2501 -3.836 4.51111
head 10.6086 -2.10809 2.75043
rclavicle 8.34896e-015 3.18055e-015
rhumerus -31.7121 3.84236 -82.4609
rradius 60.945
rwrist -0.5594
rhand -13.3593 14.0752
rfingers 7.12502
rthumb 12.7469 -15.5157
lclavicle 8.34896e-015 3.18055e-015
lhumerus -29.8274 -0.943564 87.6793
lradius 53.8131
lwrist 3.40899
lhand -14.9474 26.6681
lfingers 7.12502
lthumb 11.2155 56.3483
rfemur -20.1477 3.70351 20.4001
rtibia 28.7166
rfoot -12.9287 -9.9961
rtoes 4.83019
lfemur -20.8122 -2.91066 -18.0537
ltibia 28.9043
lfoot -14.6445 4.29346
ltoes -0.370632
192
root 0.96148 17.6473 -15.8775 9.69048 -1.2936 -0.462144
lowerback 12.5592 -0.0116608 0.279927
upperback 0.679495 0.239629 3.2566
thorax -6.35171 0.15665 3.24049
lowerneck -17.2333 -3.85588 -9.92498
upperneck 23.0804 -3.71047 4.42267
head 10.5429 -2.04784 2.71603
rclavicle -1.78906e-015 -2.38542e-015
rhumerus -31.1929 4.15673 -82.4285
rradius 61.1741
rwrist -0.860045
rhand -13.2105 13.3252
rfingers 7.12502
rthumb 12.8903 -16.2567
lclavicle -1.78906e-015 -2.38542e-015
lhumerus -29.6811 -1.19863 87.6428
lradius 54.4131
lwrist 3.78585
lhand -14.1192 27.7669
lfingers 7.12502
lthumb 12.0141 57.4021
rfemur -20.9327 3.41302 20.372
rtibia 29.4117
rfoot -13.1696 -9.78495
rtoes 4.75898
lfemur -21.605 -2.79055 -18.0733
ltibia 29.6021
lfoot -14.8244 4.11064
ltoes 0.114284
193
root 0.970367 17.6246 -15.9242 9.93523 -1.28142 -0.3188
lowerback 13.0919 -0.0150403 0.219805
upperback 0.822962 0.231231 3.22173
thorax -6.49698 0.153857 3.24365
lowerneck -17.1866 -3.86443 -10.0192
upperneck 22.6792 -3.71054 4.49759
head 10.3913 -2.04073 2.7542
rclavicle -7.7526e-015 -7.15625e-015
rhumerus -30.7162 4.40258 -82.3526
rradius 61.4507
rwrist -0.976133
rhand -13.1343 12.7694
rfingers 7.12502
rthumb 12.9637 -16.8079
lclavicle -7.7526e-015 -7.15625e-015
lhumerus -29.4189 -1.43296 87.5933
lradius 54.8653
lwrist 3.92153
lhand -16.0582 22.7149
lfingers 7.12502
lthumb 10.144 52.4503
rfemur -21.793 3.1654 20.1825
rtibia 30.1787
rfoot -13.365 -9.5515
rtoes 4.69609
lfemur -22.4688 -2.75817 -18.236
ltibia 30.3462
lfoot -14.9907 4.01504
ltoes 0.566821
